<?xml version="1.0" ?><svg data-name="Layer 1" id="Layer_1" viewBox="0 0 24 24" xmlns="http://www.w3.org/2000/svg"><defs><style>.cls-1{fill:none;stroke:#1d1d1b;stroke-linecap:round;stroke-linejoin:round;stroke-width:2px;}</style></defs><title/><path class="cls-1" d="M6.83,5.19l1.65.23a1.45,1.45,0,0,0,1.36-.56l1-1.33a1.45,1.45,0,0,1,2.32,0l1,1.33a1.45,1.45,0,0,0,1.36.56l1.65-.23a1.45,1.45,0,0,1,1.64,1.64l-.23,1.65a1.45,1.45,0,0,0,.56,1.36l1.33,1a1.45,1.45,0,0,1,0,2.32l-1.33,1a1.45,1.45,0,0,0-.56,1.36l.23,1.65a1.45,1.45,0,0,1-1.64,1.64l-1.65-.23a1.45,1.45,0,0,0-1.36.56l-1,1.33a1.45,1.45,0,0,1-2.32,0l-1-1.33a1.45,1.45,0,0,0-1.36-.56l-1.65.23a1.45,1.45,0,0,1-1.64-1.64l.23-1.65a1.45,1.45,0,0,0-.56-1.36l-1.33-1a1.45,1.45,0,0,1,0-2.32l1.33-1a1.45,1.45,0,0,0,.56-1.36L5.19,6.83A1.45,1.45,0,0,1,6.83,5.19Z" data-name="&lt;Path&gt;" id="_Path_"/><circle class="cls-1" cx="12" cy="12" data-name="&lt;Path&gt;" id="_Path_2" r="2.56"/></svg>